<?xml version="1.0" encoding="iso-8859-1"?>
<!-- Generator: Adobe Illustrator 19.0.0, SVG Export Plug-In . SVG Version: 6.00 Build 0)  -->
<svg version="1.1" id="Capa_1" xmlns="http://www.w3.org/2000/svg" xmlns:xlink="http://www.w3.org/1999/xlink" x="0px" y="0px"
	 viewBox="0 0 512.001 512.001" style="enable-background:new 0 0 512.001 512.001;" xml:space="preserve">
<linearGradient id="SVGID_1_" gradientUnits="userSpaceOnUse" x1="167.5164" y1="219.5309" x2="240.6464" y2="146.4009" gradientTransform="matrix(1.0039 0 0 -1.0039 0.1922 516.5616)">
	<stop  offset="0" style="stop-color:#FF931E"/>
	<stop  offset="0.569" style="stop-color:#FF760E"/>
	<stop  offset="1" style="stop-color:#FF5D00"/>
</linearGradient>
<path style="fill:url(#SVGID_1_);" d="M353.514,308.682c-47.672,47.672-297.6,220.309-345.273,172.636
	c-47.672-47.672,124.964-297.601,172.636-345.273s124.964-47.672,172.636,0S401.186,261.01,353.514,308.682z"/>
<g>
	<path style="fill:#FF5D00;" d="M314.357,324.224c-1.927,0-3.854-0.735-5.324-2.205l-54.755-54.755c-2.94-2.941-2.94-7.708,0-10.649
		c2.94-2.939,7.708-2.939,10.648,0l54.755,54.755c2.94,2.941,2.94,7.708,0,10.649C318.211,323.489,316.284,324.224,314.357,324.224z
		"/>
	<path style="fill:#FF5D00;" d="M269.585,357.923c-1.927,0-3.854-0.735-5.324-2.205l-51.172-51.172c-2.94-2.941-2.94-7.708,0-10.649
		c2.94-2.939,7.708-2.939,10.648,0l51.172,51.172c2.94,2.941,2.94,7.708,0,10.649C273.439,357.188,271.512,357.923,269.585,357.923z
		"/>
	<path style="fill:#FF5D00;" d="M222.938,389.748c-1.927,0-3.854-0.735-5.324-2.205l-46.385-46.385c-2.94-2.941-2.94-7.708,0-10.649
		c2.94-2.939,7.708-2.939,10.648,0l46.385,46.385c2.94,2.941,2.94,7.708,0,10.649C226.792,389.012,224.865,389.748,222.938,389.748z
		"/>
	<path style="fill:#FF5D00;" d="M174.574,419.854c-1.927,0-3.854-0.735-5.324-2.205l-40.473-40.473c-2.94-2.941-2.94-7.708,0-10.649
		c2.94-2.94,7.708-2.94,10.648,0l40.473,40.473c2.94,2.941,2.94,7.708,0,10.649C178.428,419.119,176.502,419.854,174.574,419.854z"
		/>
	<path style="fill:#FF5D00;" d="M124.022,447.772c-1.927,0-3.854-0.735-5.324-2.205L85.53,412.4c-2.94-2.941-2.94-7.708,0-10.649
		c2.94-2.939,7.708-2.939,10.648,0l33.168,33.167c2.94,2.941,2.94,7.708,0,10.649C127.875,447.037,125.948,447.772,124.022,447.772z
		"/>
	<path style="fill:#FF5D00;" d="M69.72,471.924c-1.927,0-3.854-0.735-5.324-2.205L40.976,446.3c-2.94-2.941-2.94-7.708,0-10.649
		c2.94-2.94,7.708-2.94,10.648,0l23.419,23.419c2.94,2.941,2.94,7.708,0,10.649C73.574,471.189,71.646,471.924,69.72,471.924z"/>
	<circle style="fill:#FF5D00;" cx="198.024" cy="182.062" r="12.178"/>
	<circle style="fill:#FF5D00;" cx="214.087" cy="198.124" r="6.094"/>
	<circle style="fill:#FF5D00;" cx="134.867" cy="267.375" r="6.094"/>
	<circle style="fill:#FF5D00;" cx="150.819" cy="307.251" r="6.094"/>
	<circle style="fill:#FF5D00;" cx="166.772" cy="277.123" r="6.094"/>
</g>
<linearGradient id="SVGID_2_" gradientUnits="userSpaceOnUse" x1="317.2767" y1="205.5538" x2="353.3167" y2="390.1138" gradientTransform="matrix(1.0039 0 0 -1.0039 0.1922 516.5616)">
	<stop  offset="0" style="stop-color:#FF931E;stop-opacity:0"/>
	<stop  offset="1" style="stop-color:#FF5D00"/>
</linearGradient>
<path style="fill:url(#SVGID_2_);" d="M353.514,136.046c-14.637-14.637-32.067-24.772-50.574-30.421v244.591
	c22.926-17.064,40.908-31.867,50.574-41.534C401.186,261.01,401.186,183.718,353.514,136.046z"/>
<linearGradient id="SVGID_3_" gradientUnits="userSpaceOnUse" x1="305.6954" y1="431.3693" x2="347.0654" y2="395.7592" gradientTransform="matrix(1.0039 0 0 -1.0039 0.1922 516.5616)">
	<stop  offset="0" style="stop-color:#9EB644"/>
	<stop  offset="1" style="stop-color:#738611"/>
</linearGradient>
<path style="fill:url(#SVGID_3_);" d="M352.83,123.174c11.221-22.736,9.473-50.006-5.387-70.549
	c-6.145-8.496-14.81-16.312-27.014-21.811c-45.562-20.534-69.764,27.619-37.913,50.724s46.869,89.142,46.869,89.142L352.83,123.174z
	"/>
<linearGradient id="SVGID_4_" gradientUnits="userSpaceOnUse" x1="400.6089" y1="316.1534" x2="378.9489" y2="350.7534" gradientTransform="matrix(1.0039 0 0 -1.0039 0.1922 516.5616)">
	<stop  offset="0" style="stop-color:#9EB644"/>
	<stop  offset="1" style="stop-color:#738611"/>
</linearGradient>
<path style="fill:url(#SVGID_4_);" d="M374.241,160.316c19.33-7.166,41.335-2.62,55.566,12.296
	c5.294,5.549,9.798,12.742,12.399,22.061c10.403,37.275-29.283,50.183-43.254,23.104c-13.971-27.079-58.376-44.98-58.376-44.98
	L374.241,160.316z"/>
<linearGradient id="SVGID_5_" gradientUnits="userSpaceOnUse" x1="381.7962" y1="417.1703" x2="410.8763" y2="392.1403" gradientTransform="matrix(1.0039 0 0 -1.0039 0.1922 516.5616)">
	<stop  offset="0" style="stop-color:#9EB644"/>
	<stop  offset="1" style="stop-color:#738611"/>
</linearGradient>
<path style="fill:url(#SVGID_5_);" d="M452.324,97.263c-16.315,18.954-103.986,89.73-122.939,73.415
	c-18.954-16.315,37.988-113.543,54.302-132.496c16.314-18.953,44.905-21.092,63.858-4.778S468.639,78.31,452.324,97.263z"/>
<linearGradient id="SVGID_6_" gradientUnits="userSpaceOnUse" x1="416.8767" y1="393.0128" x2="438.5867" y2="308.4128" gradientTransform="matrix(1.0039 0 0 -1.0039 0.1922 516.5616)">
	<stop  offset="0" style="stop-color:#9EB644"/>
	<stop  offset="1" style="stop-color:#738611"/>
</linearGradient>
<path style="fill:url(#SVGID_6_);" d="M411.086,117.974c0,0,52.957-40.102,87.484-7.129s-3.739,82.467-44.542,66.868
	s-112.333-5.584-112.333-5.584L411.086,117.974z"/>
<g>
</g>
<g>
</g>
<g>
</g>
<g>
</g>
<g>
</g>
<g>
</g>
<g>
</g>
<g>
</g>
<g>
</g>
<g>
</g>
<g>
</g>
<g>
</g>
<g>
</g>
<g>
</g>
<g>
</g>
</svg>
