<svg width="512" height="512" xmlns="http://www.w3.org/2000/svg" xmlns:xlink="http://www.w3.org/1999/xlink">

 <g>
  <title>Layer 1</title>
  <g stroke="null" id="svg_1">
   <g stroke="null" id="svg_2">
    <path stroke="null" id="svg_3" d="m467,40.99998l-422,0c-24.863,0 -45,23.75157 -45,52.75l0,316.50001c0,29.17075 20.285,52.75 45,52.75l422,0c24.655,0 45,-23.47961 45,-52.75l0,-316.50001c0,-28.94686 -20.057,-52.75 -45,-52.75zm-6.302,35.16667c-9.194,10.71997 -167.415,195.21369 -172.878,201.58354c-8.5,9.96389 -19.8,15.44989 -31.82,15.44989s-23.32,-5.48717 -31.848,-15.48271c-3.674,-4.28447 -160.149,-186.74087 -172.85,-201.55072l409.396,0zm-430.698,326.92575l0,-302.16256l129.638,151.16392l-129.638,150.99864zm21.321,24.74092l129.587,-150.93885l22.059,25.72207c14.166,16.6057 33,25.75021 53.033,25.75021c20.033,0 38.867,-9.14451 53.005,-25.71738l22.087,-25.7549l129.587,150.93885l-409.358,0zm430.679,-24.74092l-129.638,-150.99864l129.638,-151.16392l0,302.16256z"/>
   </g>
  </g>
  <g id="svg_4"/>
  <g id="svg_5"/>
  <g id="svg_6"/>
  <g id="svg_7"/>
  <g id="svg_8"/>
  <g id="svg_9"/>
  <g id="svg_10"/>
  <g id="svg_11"/>
  <g id="svg_12"/>
  <g id="svg_13"/>
  <g id="svg_14"/>
  <g id="svg_15"/>
  <g id="svg_16"/>
  <g id="svg_17"/>
  <g id="svg_18"/>
  <use x="0" y="0" transform="matrix(0.33398565649986267,0,0,0.33398565649986267,0,0) " xlink:href="#svg_19" id="svg_20"/>
 </g>
</svg>